# Blender v2.92.0 OBJ File: ''
# www.blender.org
mtllib blender-sphere.mtl
o Sphere
v 0.000000 0.707107 -0.707107
v 0.000000 0.382683 -0.923880
v 0.000000 -0.382684 -0.923880
v 0.000000 -0.923880 -0.382683
v 0.146447 0.923880 -0.353553
v 0.270598 0.707107 -0.653281
v 0.353553 0.382683 -0.853553
v 0.382683 -0.000000 -0.923880
v 0.353553 -0.382684 -0.853553
v 0.270598 -0.707107 -0.653281
v 0.146447 -0.923880 -0.353553
v 0.270598 0.923880 -0.270598
v 0.500000 0.707107 -0.500000
v 0.653281 0.382683 -0.653281
v 0.707107 -0.000000 -0.707107
v 0.653281 -0.382684 -0.653281
v 0.500000 -0.707107 -0.500000
v 0.270598 -0.923880 -0.270598
v 0.353553 0.923880 -0.146447
v 0.653281 0.707107 -0.270598
v 0.853553 0.382683 -0.353553
v 0.923879 -0.000000 -0.382683
v 0.853553 -0.382684 -0.353553
v 0.653281 -0.707107 -0.270598
v 0.353553 -0.923880 -0.146447
v 0.382683 0.923880 -0.000000
v 0.707107 0.707107 -0.000000
v 0.923879 0.382683 -0.000000
v 1.000000 -0.000000 -0.000000
v 0.923879 -0.382684 -0.000000
v 0.707107 -0.707107 -0.000000
v 0.382683 -0.923880 -0.000000
v 0.353553 0.923880 0.146446
v 0.653281 0.707107 0.270598
v 0.853553 0.382683 0.353553
v 0.923879 -0.000000 0.382683
v 0.853553 -0.382684 0.353553
v 0.653281 -0.707107 0.270598
v 0.353553 -0.923880 0.146446
v 0.270598 0.923880 0.270598
v 0.500000 0.707107 0.500000
v 0.653281 0.382683 0.653281
v 0.707106 -0.000000 0.707107
v 0.653281 -0.382684 0.653281
v 0.500000 -0.707107 0.500000
v 0.270598 -0.923880 0.270598
v 0.146446 0.923880 0.353553
v 0.270598 0.707107 0.653281
v 0.353553 0.382683 0.853553
v 0.382683 -0.000000 0.923879
v 0.353553 -0.382684 0.853553
v 0.270598 -0.707107 0.653281
v 0.146446 -0.923880 0.353553
v -0.000000 0.923880 0.382683
v -0.000000 0.707107 0.707106
v -0.000000 0.382683 0.923879
v -0.000000 -0.000000 1.000000
v -0.000000 -0.382684 0.923879
v -0.000000 -0.707107 0.707106
v -0.000000 -0.923880 0.382683
v -0.146447 0.923880 0.353553
v -0.270598 0.707107 0.653281
v -0.353554 0.382683 0.853553
v -0.382684 -0.000000 0.923879
v -0.353554 -0.382684 0.853553
v -0.270598 -0.707107 0.653281
v -0.146447 -0.923880 0.353553
v -0.270598 0.923880 0.270598
v -0.500000 0.707107 0.499999
v -0.653282 0.382683 0.653281
v -0.707107 -0.000000 0.707106
v -0.653282 -0.382684 0.653281
v -0.500000 -0.707107 0.499999
v -0.270598 -0.923880 0.270598
v -0.353553 0.923880 0.146446
v -0.653281 0.707107 0.270597
v -0.853553 0.382683 0.353553
v -0.923879 -0.000000 0.382683
v -0.853553 -0.382684 0.353553
v -0.653281 -0.707107 0.270597
v -0.353553 -0.923880 0.146446
v -0.382683 0.923880 -0.000000
v -0.707106 0.707107 -0.000000
v -0.923879 0.382683 -0.000001
v -1.000000 -0.000000 -0.000001
v -0.923879 -0.382684 -0.000001
v -0.707106 -0.707107 -0.000000
v -0.382683 -0.923880 -0.000000
v -0.353553 0.923880 -0.146447
v -0.653281 0.707107 -0.270598
v -0.853553 0.382683 -0.353554
v -0.923879 -0.000000 -0.382684
v -0.853553 -0.382684 -0.353554
v -0.653281 -0.707107 -0.270598
v -0.353553 -0.923880 -0.146447
v -0.270598 0.923880 -0.270598
v -0.499999 0.707107 -0.500000
v -0.653281 0.382683 -0.653282
v -0.707106 -0.000000 -0.707107
v -0.653281 -0.382684 -0.653282
v -0.499999 -0.707107 -0.500000
v -0.270598 -0.923880 -0.270598
v -0.146446 0.923880 -0.353553
v -0.270598 0.707107 -0.653281
v -0.353553 0.382683 -0.853553
v -0.382683 -0.000000 -0.923880
v -0.353553 -0.382684 -0.853553
v -0.270598 -0.707107 -0.653281
v -0.146446 -0.923880 -0.353553
v -0.000000 1.000000 -0.000000
v 0.000000 0.923880 -0.382683
v 0.000001 -0.000000 -1.000000
v 0.000000 -0.707107 -0.707106
v 0.000000 -1.000000 -0.000000
vt 0.718750 0.000000
vt 0.750000 0.125000
vt 0.687500 0.125000
vt 0.750000 0.250000
vt 0.750000 0.375000
vt 0.687500 0.375000
vt 0.687500 0.250000
vt 0.750000 0.500000
vt 0.750000 0.625000
vt 0.687500 0.625000
vt 0.687500 0.500000
vt 0.750000 0.750000
vt 0.750000 0.875000
vt 0.687500 0.875000
vt 0.687500 0.750000
vt 0.718750 1.000000
vt 0.625000 0.875000
vt 0.625000 0.750000
vt 0.625000 0.250000
vt 0.625000 0.125000
vt 0.625000 0.500000
vt 0.625000 0.375000
vt 0.625000 0.625000
vt 0.656250 1.000000
vt 0.656250 0.000000
vt 0.562500 0.250000
vt 0.562500 0.125000
vt 0.562500 0.500000
vt 0.562500 0.375000
vt 0.562500 0.750000
vt 0.562500 0.625000
vt 0.593750 1.000000
vt 0.562500 0.875000
vt 0.593750 0.000000
vt 0.531250 1.000000
vt 0.500000 0.875000
vt 0.531250 0.000000
vt 0.500000 0.125000
vt 0.500000 0.375000
vt 0.500000 0.250000
vt 0.500000 0.625000
vt 0.500000 0.500000
vt 0.500000 0.750000
vt 0.437500 0.375000
vt 0.437500 0.250000
vt 0.437500 0.625000
vt 0.437500 0.500000
vt 0.437500 0.875000
vt 0.437500 0.750000
vt 0.437500 0.125000
vt 0.468750 1.000000
vt 0.468750 0.000000
vt 0.375000 0.250000
vt 0.375000 0.125000
vt 0.375000 0.500000
vt 0.375000 0.375000
vt 0.375000 0.750000
vt 0.375000 0.625000
vt 0.406250 1.000000
vt 0.375000 0.875000
vt 0.406250 0.000000
vt 0.312500 0.500000
vt 0.312500 0.375000
vt 0.312500 0.750000
vt 0.312500 0.625000
vt 0.343750 1.000000
vt 0.312500 0.875000
vt 0.343750 0.000000
vt 0.312500 0.125000
vt 0.312500 0.250000
vt 0.281250 0.000000
vt 0.250000 0.125000
vt 0.250000 0.375000
vt 0.250000 0.250000
vt 0.250000 0.625000
vt 0.250000 0.500000
vt 0.250000 0.875000
vt 0.250000 0.750000
vt 0.281250 1.000000
vt 0.187500 0.625000
vt 0.187500 0.500000
vt 0.187500 0.875000
vt 0.187500 0.750000
vt 0.187500 0.250000
vt 0.187500 0.125000
vt 0.187500 0.375000
vt 0.218750 1.000000
vt 0.218750 0.000000
vt 0.125000 0.250000
vt 0.125000 0.125000
vt 0.125000 0.500000
vt 0.125000 0.375000
vt 0.125000 0.750000
vt 0.125000 0.625000
vt 0.156250 1.000000
vt 0.125000 0.875000
vt 0.156250 0.000000
vt 0.062500 0.750000
vt 0.062500 0.625000
vt 0.093750 1.000000
vt 0.062500 0.875000
vt 0.093750 0.000000
vt 0.062500 0.125000
vt 0.062500 0.375000
vt 0.062500 0.250000
vt 0.062500 0.500000
vt 0.031250 0.000000
vt 0.000000 0.125000
vt 0.000000 0.375000
vt 0.000000 0.250000
vt 0.000000 0.625000
vt 0.000000 0.500000
vt 0.000000 0.875000
vt 0.000000 0.750000
vt 0.031250 1.000000
vt 1.000000 0.750000
vt 1.000000 0.875000
vt 0.937500 0.875000
vt 0.937500 0.750000
vt 1.000000 0.125000
vt 1.000000 0.250000
vt 0.937500 0.250000
vt 0.937500 0.125000
vt 1.000000 0.375000
vt 1.000000 0.500000
vt 0.937500 0.500000
vt 0.937500 0.375000
vt 1.000000 0.625000
vt 0.937500 0.625000
vt 0.968750 1.000000
vt 0.968750 0.000000
vt 0.875000 0.250000
vt 0.875000 0.125000
vt 0.875000 0.500000
vt 0.875000 0.375000
vt 0.875000 0.750000
vt 0.875000 0.625000
vt 0.906250 1.000000
vt 0.875000 0.875000
vt 0.906250 0.000000
vt 0.843750 1.000000
vt 0.812500 0.875000
vt 0.843750 0.000000
vt 0.812500 0.125000
vt 0.812500 0.375000
vt 0.812500 0.250000
vt 0.812500 0.625000
vt 0.812500 0.500000
vt 0.812500 0.750000
vt 0.781250 1.000000
vt 0.781250 0.000000
vn -0.0000 -1.0000 -0.0000
vn -0.0000 -0.9152 -0.4031
vn 0.1543 -0.9152 -0.3724
vn 0.0000 -0.6952 -0.7189
vn -0.0000 -0.3744 -0.9273
vn 0.3549 -0.3744 -0.8567
vn 0.2751 -0.6952 -0.6641
vn 0.0000 0.0000 -1.0000
vn -0.0000 0.3744 -0.9273
vn 0.3549 0.3744 -0.8567
vn 0.3827 0.0000 -0.9239
vn -0.0000 0.6952 -0.7189
vn -0.0000 0.9152 -0.4031
vn 0.1543 0.9152 -0.3724
vn 0.2751 0.6952 -0.6641
vn -0.0000 1.0000 0.0000
vn 0.2850 0.9152 -0.2850
vn 0.5083 0.6952 -0.5083
vn 0.5083 -0.6952 -0.5083
vn 0.2850 -0.9152 -0.2850
vn 0.7071 -0.0000 -0.7071
vn 0.6557 -0.3744 -0.6557
vn 0.6557 0.3744 -0.6557
vn 0.6641 -0.6952 -0.2751
vn 0.3724 -0.9152 -0.1543
vn 0.9239 -0.0000 -0.3827
vn 0.8567 -0.3744 -0.3549
vn 0.6641 0.6952 -0.2751
vn 0.8567 0.3744 -0.3549
vn 0.3724 0.9152 -0.1543
vn 0.4031 0.9152 -0.0000
vn 0.4031 -0.9152 0.0000
vn 0.9273 -0.3744 0.0000
vn 0.7189 -0.6952 0.0000
vn 0.9273 0.3744 0.0000
vn 1.0000 0.0000 0.0000
vn 0.7189 0.6952 0.0000
vn 0.8567 -0.3744 0.3549
vn 0.6641 -0.6952 0.2751
vn 0.8567 0.3744 0.3549
vn 0.9239 -0.0000 0.3827
vn 0.3724 0.9152 0.1543
vn 0.6641 0.6952 0.2751
vn 0.3724 -0.9152 0.1543
vn 0.5083 -0.6952 0.5083
vn 0.2850 -0.9152 0.2850
vn 0.7071 -0.0000 0.7071
vn 0.6557 -0.3744 0.6557
vn 0.5083 0.6952 0.5083
vn 0.6557 0.3744 0.6557
vn 0.2850 0.9152 0.2850
vn 0.3827 0.0000 0.9239
vn 0.3549 -0.3744 0.8567
vn 0.2751 0.6952 0.6641
vn 0.3549 0.3744 0.8567
vn 0.1543 0.9152 0.3724
vn 0.1543 -0.9152 0.3724
vn 0.2751 -0.6952 0.6641
vn -0.0000 -0.9152 0.4031
vn -0.0000 -0.3744 0.9273
vn -0.0000 -0.6952 0.7189
vn -0.0000 0.3744 0.9273
vn -0.0000 0.0000 1.0000
vn -0.0000 0.9152 0.4031
vn -0.0000 0.6952 0.7189
vn -0.3549 0.3744 0.8567
vn -0.3827 -0.0000 0.9239
vn -0.1543 0.9152 0.3724
vn -0.2751 0.6952 0.6641
vn -0.2751 -0.6952 0.6641
vn -0.1543 -0.9152 0.3724
vn -0.3549 -0.3744 0.8567
vn -0.5083 -0.6952 0.5083
vn -0.2850 -0.9152 0.2850
vn -0.7071 0.0000 0.7071
vn -0.6557 -0.3744 0.6557
vn -0.5083 0.6952 0.5083
vn -0.6557 0.3744 0.6557
vn -0.2850 0.9152 0.2850
vn -0.6641 0.6952 0.2751
vn -0.8567 0.3744 0.3549
vn -0.3724 0.9152 0.1543
vn -0.3724 -0.9152 0.1543
vn -0.8567 -0.3744 0.3549
vn -0.6641 -0.6952 0.2751
vn -0.9239 0.0000 0.3827
vn -0.4031 -0.9152 -0.0000
vn -0.9273 -0.3744 -0.0000
vn -0.7189 -0.6952 -0.0000
vn -0.9273 0.3744 -0.0000
vn -1.0000 0.0000 -0.0000
vn -0.4031 0.9152 -0.0000
vn -0.7189 0.6952 -0.0000
vn -0.3724 0.9152 -0.1543
vn -0.6641 0.6952 -0.2751
vn -0.6641 -0.6952 -0.2751
vn -0.3724 -0.9152 -0.1543
vn -0.9239 0.0000 -0.3827
vn -0.8567 -0.3744 -0.3549
vn -0.8567 0.3744 -0.3549
vn -0.5083 -0.6952 -0.5083
vn -0.2850 -0.9152 -0.2850
vn -0.7071 -0.0000 -0.7071
vn -0.6557 -0.3744 -0.6557
vn -0.5083 0.6952 -0.5083
vn -0.6557 0.3744 -0.6557
vn -0.2850 0.9152 -0.2850
vn -0.1543 0.9152 -0.3724
vn -0.1543 -0.9152 -0.3724
vn -0.3549 -0.3744 -0.8567
vn -0.2751 -0.6952 -0.6641
vn -0.3549 0.3744 -0.8567
vn -0.3827 -0.0000 -0.9239
vn -0.2751 0.6952 -0.6641
usemtl None
s 1
f 114/1/1 4/2/2 11/3/3
f 113/4/4 3/5/5 9/6/6 10/7/7
f 112/8/8 2/9/9 7/10/10 8/11/11
f 1/12/12 111/13/13 5/14/14 6/15/15
f 4/2/2 113/4/4 10/7/7 11/3/3
f 3/5/5 112/8/8 8/11/11 9/6/6
f 2/9/9 1/12/12 6/15/15 7/10/10
f 111/13/13 110/16/16 5/14/14
f 6/15/15 5/14/14 12/17/17 13/18/18
f 11/3/3 10/7/7 17/19/19 18/20/20
f 9/6/6 8/11/11 15/21/21 16/22/22
f 7/10/10 6/15/15 13/18/18 14/23/23
f 5/14/14 110/24/16 12/17/17
f 114/25/1 11/3/3 18/20/20
f 10/7/7 9/6/6 16/22/22 17/19/19
f 8/11/11 7/10/10 14/23/23 15/21/21
f 18/20/20 17/19/19 24/26/24 25/27/25
f 16/22/22 15/21/21 22/28/26 23/29/27
f 14/23/23 13/18/18 20/30/28 21/31/29
f 12/17/17 110/32/16 19/33/30
f 114/34/1 18/20/20 25/27/25
f 17/19/19 16/22/22 23/29/27 24/26/24
f 15/21/21 14/23/23 21/31/29 22/28/26
f 13/18/18 12/17/17 19/33/30 20/30/28
f 19/33/30 110/35/16 26/36/31
f 114/37/1 25/27/25 32/38/32
f 24/26/24 23/29/27 30/39/33 31/40/34
f 22/28/26 21/31/29 28/41/35 29/42/36
f 20/30/28 19/33/30 26/36/31 27/43/37
f 25/27/25 24/26/24 31/40/34 32/38/32
f 23/29/27 22/28/26 29/42/36 30/39/33
f 21/31/29 20/30/28 27/43/37 28/41/35
f 31/40/34 30/39/33 37/44/38 38/45/39
f 29/42/36 28/41/35 35/46/40 36/47/41
f 27/43/37 26/36/31 33/48/42 34/49/43
f 32/38/32 31/40/34 38/45/39 39/50/44
f 30/39/33 29/42/36 36/47/41 37/44/38
f 28/41/35 27/43/37 34/49/43 35/46/40
f 26/36/31 110/51/16 33/48/42
f 114/52/1 32/38/32 39/50/44
f 39/50/44 38/45/39 45/53/45 46/54/46
f 37/44/38 36/47/41 43/55/47 44/56/48
f 35/46/40 34/49/43 41/57/49 42/58/50
f 33/48/42 110/59/16 40/60/51
f 114/61/1 39/50/44 46/54/46
f 38/45/39 37/44/38 44/56/48 45/53/45
f 36/47/41 35/46/40 42/58/50 43/55/47
f 34/49/43 33/48/42 40/60/51 41/57/49
f 44/56/48 43/55/47 50/62/52 51/63/53
f 42/58/50 41/57/49 48/64/54 49/65/55
f 40/60/51 110/66/16 47/67/56
f 114/68/1 46/54/46 53/69/57
f 45/53/45 44/56/48 51/63/53 52/70/58
f 43/55/47 42/58/50 49/65/55 50/62/52
f 41/57/49 40/60/51 47/67/56 48/64/54
f 46/54/46 45/53/45 52/70/58 53/69/57
f 114/71/1 53/69/57 60/72/59
f 52/70/58 51/63/53 58/73/60 59/74/61
f 50/62/52 49/65/55 56/75/62 57/76/63
f 48/64/54 47/67/56 54/77/64 55/78/65
f 53/69/57 52/70/58 59/74/61 60/72/59
f 51/63/53 50/62/52 57/76/63 58/73/60
f 49/65/55 48/64/54 55/78/65 56/75/62
f 47/67/56 110/79/16 54/77/64
f 57/76/63 56/75/62 63/80/66 64/81/67
f 55/78/65 54/77/64 61/82/68 62/83/69
f 60/72/59 59/74/61 66/84/70 67/85/71
f 58/73/60 57/76/63 64/81/67 65/86/72
f 56/75/62 55/78/65 62/83/69 63/80/66
f 54/77/64 110/87/16 61/82/68
f 114/88/1 60/72/59 67/85/71
f 59/74/61 58/73/60 65/86/72 66/84/70
f 67/85/71 66/84/70 73/89/73 74/90/74
f 65/86/72 64/81/67 71/91/75 72/92/76
f 63/80/66 62/83/69 69/93/77 70/94/78
f 61/82/68 110/95/16 68/96/79
f 114/97/1 67/85/71 74/90/74
f 66/84/70 65/86/72 72/92/76 73/89/73
f 64/81/67 63/80/66 70/94/78 71/91/75
f 62/83/69 61/82/68 68/96/79 69/93/77
f 70/94/78 69/93/77 76/98/80 77/99/81
f 68/96/79 110/100/16 75/101/82
f 114/102/1 74/90/74 81/103/83
f 73/89/73 72/92/76 79/104/84 80/105/85
f 71/91/75 70/94/78 77/99/81 78/106/86
f 69/93/77 68/96/79 75/101/82 76/98/80
f 74/90/74 73/89/73 80/105/85 81/103/83
f 72/92/76 71/91/75 78/106/86 79/104/84
f 114/107/1 81/103/83 88/108/87
f 80/105/85 79/104/84 86/109/88 87/110/89
f 78/106/86 77/99/81 84/111/90 85/112/91
f 76/98/80 75/101/82 82/113/92 83/114/93
f 81/103/83 80/105/85 87/110/89 88/108/87
f 79/104/84 78/106/86 85/112/91 86/109/88
f 77/99/81 76/98/80 83/114/93 84/111/90
f 75/101/82 110/115/16 82/113/92
f 83/116/93 82/117/92 89/118/94 90/119/95
f 88/120/87 87/121/89 94/122/96 95/123/97
f 86/124/88 85/125/91 92/126/98 93/127/99
f 84/128/90 83/116/93 90/119/95 91/129/100
f 82/117/92 110/130/16 89/118/94
f 114/131/1 88/120/87 95/123/97
f 87/121/89 86/124/88 93/127/99 94/122/96
f 85/125/91 84/128/90 91/129/100 92/126/98
f 95/123/97 94/122/96 101/132/101 102/133/102
f 93/127/99 92/126/98 99/134/103 100/135/104
f 91/129/100 90/119/95 97/136/105 98/137/106
f 89/118/94 110/138/16 96/139/107
f 114/140/1 95/123/97 102/133/102
f 94/122/96 93/127/99 100/135/104 101/132/101
f 92/126/98 91/129/100 98/137/106 99/134/103
f 90/119/95 89/118/94 96/139/107 97/136/105
f 96/139/107 110/141/16 103/142/108
f 114/143/1 102/133/102 109/144/109
f 101/132/101 100/135/104 107/145/110 108/146/111
f 99/134/103 98/137/106 105/147/112 106/148/113
f 97/136/105 96/139/107 103/142/108 104/149/114
f 102/133/102 101/132/101 108/146/111 109/144/109
f 100/135/104 99/134/103 106/148/113 107/145/110
f 98/137/106 97/136/105 104/149/114 105/147/112
f 108/146/111 107/145/110 3/5/5 113/4/4
f 106/148/113 105/147/112 2/9/9 112/8/8
f 104/149/114 103/142/108 111/13/13 1/12/12
f 109/144/109 108/146/111 113/4/4 4/2/2
f 107/145/110 106/148/113 112/8/8 3/5/5
f 105/147/112 104/149/114 1/12/12 2/9/9
f 103/142/108 110/150/16 111/13/13
f 114/151/1 109/144/109 4/2/2
